<svg xmlns="http://www.w3.org/2000/svg">
    <symbol id="excel" categories="custom" tags="excel" viewBox="0 0 384 512">
        <g>
            <path d="M224 128L224 0H48C21.49 0 0 21.49 0 48v416C0 490.5 21.49 512 48 512h288c26.51 0 48-21.49 48-48V160h-127.1C238.3 160 224 145.7 224 128zM272.1 264.4L224 344l48.99 79.61C279.6 434.3 271.9 448 259.4 448h-26.43c-5.557 0-10.71-2.883-13.63-7.617L192 396l-27.31 44.38C161.8 445.1 156.6 448 151.1 448H124.6c-12.52 0-20.19-13.73-13.63-24.39L160 344L111 264.4C104.4 253.7 112.1 240 124.6 240h26.43c5.557 0 10.71 2.883 13.63 7.613L192 292l27.31-44.39C222.2 242.9 227.4 240 232.9 240h26.43C271.9 240 279.6 253.7 272.1 264.4zM256 0v128h128L256 0z"/>
        </g>
    </symbol>

    <symbol id="ca-flag" categories="custom" tags="excel" viewBox="0 0 425 425">
        <g><path style="opacity:0.008" fill="#82fffe" d="M 133.5,-0.5 C 135.167,-0.5 136.833,-0.5 138.5,-0.5C 138.209,0.649106 137.376,1.31577 136,1.5C 134.624,1.31577 133.791,0.649106 133.5,-0.5 Z"/></g>
        <g><path style="opacity:0.008" fill="#40fe78" d="M 143.5,-0.5 C 144.167,-0.5 144.833,-0.5 145.5,-0.5C 144.833,2.16667 144.167,2.16667 143.5,-0.5 Z"/></g>
        <g><path style="opacity:0.016" fill="#79ffff" d="M 146.5,-0.5 C 147.5,-0.5 148.5,-0.5 149.5,-0.5C 148.5,2.16667 147.5,2.16667 146.5,-0.5 Z"/></g>
        <g><path style="opacity:1" fill="#fedf0f" d="M 171.5,-0.5 C 196.833,-0.5 222.167,-0.5 247.5,-0.5C 249.698,0.842684 252.031,2.17602 254.5,3.5C 255.251,2.62402 255.751,1.62402 256,0.5C 261.035,4.97679 266.535,5.97679 272.5,3.5C 274.074,6.33186 276.407,8.33186 279.5,9.5C 281.891,8.80863 281.891,7.80863 279.5,6.5C 283.5,5.16667 284.833,6.5 283.5,10.5C 284.651,11.731 285.817,11.731 287,10.5C 288.019,11.6872 289.186,12.6872 290.5,13.5C 291.192,12.9747 291.692,12.3081 292,11.5C 292.645,12.646 293.478,13.646 294.5,14.5C 297.739,16.036 300.906,17.7027 304,19.5C 304.95,18.9777 305.784,18.311 306.5,17.5C 309.074,19.9635 311.74,19.9635 314.5,17.5C 315.167,17.8333 315.833,18.1667 316.5,18.5C 314.844,20.3294 312.844,21.6628 310.5,22.5C 313.129,23.209 315.629,24.209 318,25.5C 319,24.8333 320,24.1667 321,23.5C 321.5,23.8333 322,24.1667 322.5,24.5C 320.023,25.88 320.023,26.88 322.5,27.5C 322.5,28.8333 323.167,29.5 324.5,29.5C 326.121,29.7869 327.121,30.7869 327.5,32.5C 328.689,33.4287 330.022,33.762 331.5,33.5C 332.167,33.5 332.833,33.5 333.5,33.5C 333.328,34.4916 333.662,35.1583 334.5,35.5C 334.539,36.5832 334.873,37.5832 335.5,38.5C 338.547,40.244 341.547,41.9107 344.5,43.5C 256.506,45.4974 168.173,46.1641 79.5,45.5C 80.9088,43.2393 82.5754,41.2393 84.5,39.5C 84.8333,39.5 85.1667,39.5 85.5,39.5C 87.5,38.8333 88.8333,37.5 89.5,35.5C 91.9084,34.799 94.2418,33.799 96.5,32.5C 95.4104,31.3914 95.4104,30.3914 96.5,29.5C 97.1924,30.0253 97.6924,30.6919 98,31.5C 100.142,29.5119 102.642,28.1786 105.5,27.5C 105.5,26.1667 105.5,24.8333 105.5,23.5C 109.63,23.4657 113.63,22.799 117.5,21.5C 117.64,19.8762 116.973,18.7096 115.5,18C 117.479,17.3164 119.146,17.8164 120.5,19.5C 122.506,17.4922 124.839,16.1588 127.5,15.5C 128.167,15.5 128.833,15.5 129.5,15.5C 133.778,12.8731 138.111,10.2065 142.5,7.5C 143.192,8.02527 143.692,8.69194 144,9.5C 145.8,5.72315 148.134,5.05648 151,7.5C 152.586,6.62404 154.086,5.62404 155.5,4.5C 155.167,3.83333 154.833,3.16667 154.5,2.5C 156.5,1.16667 158.5,1.16667 160.5,2.5C 159.41,3.60862 159.41,4.60862 160.5,5.5C 162.896,3.93343 165.563,3.1001 168.5,3C 168.167,2.66667 167.833,2.33333 167.5,2C 169.437,1.87838 170.77,1.04504 171.5,-0.5 Z"/></g>
        <g><path style="opacity:0.06" fill="#fbff10" d="M 265.5,-0.5 C 267.5,-0.5 269.5,-0.5 271.5,-0.5C 271.03,0.693482 270.03,1.36015 268.5,1.5C 266.97,1.36015 265.97,0.693482 265.5,-0.5 Z"/></g>
        <g><path style="opacity:0.012" fill="#00fffe" d="M 283.5,-0.5 C 284.833,-0.5 286.167,-0.5 287.5,-0.5C 287.672,0.491622 287.338,1.15829 286.5,1.5C 285.5,1.5 284.5,1.5 283.5,1.5C 283.5,0.833333 283.5,0.166667 283.5,-0.5 Z"/></g>
        <g><path style="opacity:0.042" fill="#feff00" d="M 127.5,1.5 C 128.675,1.28099 129.675,1.61432 130.5,2.5C 128.948,3.79789 127.948,3.46455 127.5,1.5 Z"/></g>
        <g><path style="opacity:0.049" fill="#ffff01" d="M 283.5,1.5 C 284.5,1.5 285.5,1.5 286.5,1.5C 285.848,2.72507 284.681,3.39174 283,3.5C 278.528,2.61811 278.694,1.95144 283.5,1.5 Z"/></g>
        <g><path style="opacity:0.008" fill="#ff96ff" d="M 133.5,3.5 C 135.288,3.21478 136.955,3.54811 138.5,4.5C 137.667,4.83333 136.833,5.16667 136,5.5C 134.624,5.31577 133.791,4.64911 133.5,3.5 Z"/></g>
        <g><path style="opacity:0.02" fill="#f1ff00" d="M 287.5,3.5 C 289.924,3.19244 292.257,3.52577 294.5,4.5C 293.333,4.83333 292.167,5.16667 291,5.5C 289.319,5.39174 288.152,4.72507 287.5,3.5 Z"/></g>
        <g><path style="opacity:0.034" fill="#00ff00" d="M 300.5,3.5 C 301.675,3.28099 302.675,3.61432 303.5,4.5C 301.948,5.79789 300.948,5.46455 300.5,3.5 Z"/></g>
        <g><path style="opacity:0.008" fill="#00fffe" d="M 151.5,4.5 C 152.833,5.16667 152.833,5.16667 151.5,4.5 Z"/></g>
        <g><path style="opacity:0.039" fill="#ffe6fe" d="M 127.5,5.5 C 128.978,5.23798 130.311,5.57131 131.5,6.5C 130.833,6.83333 130.167,7.16667 129.5,7.5C 128.287,7.25284 127.62,6.58617 127.5,5.5 Z"/></g>
        <g><path style="opacity:0.03" fill="#faff00" d="M 295.5,9.5 C 297.604,9.2011 299.604,9.53443 301.5,10.5C 298.874,14.5305 296.874,14.1972 295.5,9.5 Z"/></g>
        <g><path style="opacity:0.031" fill="#07a9ff" d="M 129.5,15.5 C 128.833,15.5 128.167,15.5 127.5,15.5C 128.167,12.8333 128.833,12.8333 129.5,15.5 Z"/></g>
        <g><path style="opacity:0.024" fill="#00ff00" d="M 95.5,15.5 C 97.337,15.6395 97.6704,16.3061 96.5,17.5C 95.7025,17.0431 95.3691,16.3764 95.5,15.5 Z"/></g>
        <g><path style="opacity:0.008" fill="#ffef00" d="M 111.5,15.5 C 112.675,15.281 113.675,15.6143 114.5,16.5C 112.948,17.7979 111.948,17.4646 111.5,15.5 Z"/></g>
        <g><path style="opacity:0.024" fill="#fed500" d="M 317.5,15.5 C 319.337,15.6395 319.67,16.3061 318.5,17.5C 317.702,17.0431 317.369,16.3764 317.5,15.5 Z"/></g>
        <g><path style="opacity:0.012" fill="#f3effe" d="M 323.5,17.5 C 327.226,17.1774 330.893,17.5108 334.5,18.5C 330.519,19.061 326.686,20.061 323,21.5C 322.5,21.1667 322,20.8333 321.5,20.5C 322.612,19.7348 323.279,18.7348 323.5,17.5 Z"/></g>
        <g><path style="opacity:0.054" fill="#f7ff00" d="M 98.5,23.5 C 100.035,21.4616 102.035,19.7949 104.5,18.5C 105.833,17.1667 107.167,17.1667 108.5,18.5C 105.536,21.0404 102.203,22.707 98.5,23.5 Z"/></g>
        <g><path style="opacity:0.051" fill="#e2ff00" d="M 109.5,19.5 C 111.337,19.6395 111.67,20.3061 110.5,21.5C 109.702,21.0431 109.369,20.3764 109.5,19.5 Z"/></g>
        <g><path style="opacity:0.051" fill="#f0ff00" d="M 98.5,23.5 C 98.0517,25.4646 97.0517,25.7979 95.5,24.5C 96.325,23.6143 97.325,23.281 98.5,23.5 Z"/></g>
        <g><path style="opacity:0.008" fill="#fe00ff" d="M 322.5,27.5 C 323.833,27.5 324.5,28.1667 324.5,29.5C 324.5,28.1667 323.833,27.5 322.5,27.5 Z"/></g>
        <g><path style="opacity:0.051" fill="#a6ff00" d="M 327.5,27.5 C 329.337,27.6395 329.67,28.3061 328.5,29.5C 327.702,29.0431 327.369,28.3764 327.5,27.5 Z"/></g>
        <g><path style="opacity:0.016" fill="#00ff00" d="M 93.5,31.5 C 94.8333,32.1667 94.8333,32.1667 93.5,31.5 Z"/></g>
        <g><path style="opacity:0.008" fill="#cafffe" d="M 333.5,31.5 C 333.5,32.1667 333.5,32.8333 333.5,33.5C 332.833,33.5 332.167,33.5 331.5,33.5C 331.5,32.1667 332.167,31.5 333.5,31.5 Z"/></g>
        <g><path style="opacity:0.067" fill="#eaff00" d="M 349.5,33.5 C 349.639,31.663 350.306,31.3296 351.5,32.5C 351.043,33.2975 350.376,33.6309 349.5,33.5 Z"/></g>
        <g><path style="opacity:0.008" fill="#fe00ff" d="M 90.5,32.5 C 91.8333,33.1667 91.8333,33.1667 90.5,32.5 Z"/></g>
        <g><path style="opacity:0.024" fill="#e0ffff" d="M 83.5,33.5 C 84.9778,33.238 86.3112,33.5713 87.5,34.5C 86.8333,34.8333 86.1667,35.1667 85.5,35.5C 84.2867,35.2528 83.62,34.5862 83.5,33.5 Z"/></g>
        <g><path style="opacity:0.037" fill="#9af446" d="M 334.5,35.5 C 333.662,35.1583 333.328,34.4916 333.5,33.5C 333.5,32.8333 333.5,32.1667 333.5,31.5C 334.167,26.1667 334.833,26.1667 335.5,31.5C 341.057,33.9887 340.724,35.322 334.5,35.5 Z"/></g>
        <g><path style="opacity:0.106" fill="#edff28" d="M 349.5,33.5 C 349.5,34.1667 349.5,34.8333 349.5,35.5C 344.167,34.8333 344.167,34.1667 349.5,33.5 Z"/></g>
        <g><path style="opacity:0.008" fill="#00fffe" d="M 89.5,35.5 C 88.8333,34.1667 88.8333,34.1667 89.5,35.5 Z"/></g>
        <g><path style="opacity:0.012" fill="#00fffe" d="M 85.5,39.5 C 85.1667,39.5 84.8333,39.5 84.5,39.5C 83.325,39.719 82.325,39.3857 81.5,38.5C 82.1667,38.1667 82.8333,37.8333 83.5,37.5C 84.7133,37.7472 85.38,38.4138 85.5,39.5 Z"/></g>
        <g><path style="opacity:0.008" fill="#8cfffe" d="M 349.5,35.5 C 350.586,35.62 351.253,36.2867 351.5,37.5C 351.253,38.7133 350.586,39.38 349.5,39.5C 349.5,38.1667 349.5,36.8333 349.5,35.5 Z"/></g>
        <g><path style="opacity:0.024" fill="#feff00" d="M 349.5,39.5 C 349.5,40.8333 348.833,41.5 347.5,41.5C 347.5,40.1667 348.167,39.5 349.5,39.5 Z"/></g>
        <g><path style="opacity:0.008" fill="#0000ff" d="M 350.5,40.5 C 351.833,41.1667 351.833,41.1667 350.5,40.5 Z"/></g>
        <g><path style="opacity:1" fill="#fbcb3f" d="M 347.5,41.5 C 348.335,42.9432 349.668,43.9432 351.5,44.5C 350.675,45.3857 349.675,45.719 348.5,45.5C 347.222,45.7822 346.222,46.4489 345.5,47.5C 256.833,46.8333 168.167,46.1667 79.5,45.5C 168.173,46.1641 256.506,45.4974 344.5,43.5C 344.821,41.9519 345.821,41.2852 347.5,41.5 Z"/></g>
        <g><path style="opacity:1" fill="#d26000" d="M 79.5,45.5 C 168.167,46.1667 256.833,46.8333 345.5,47.5C 256.167,47.5 166.833,47.5 77.5,47.5C 77.8333,46.5 78.5,45.8333 79.5,45.5 Z"/></g>
        <g><path style="opacity:0.021" fill="#fe00ff" d="M 49.5,47.5 C 50.675,47.281 51.675,47.6143 52.5,48.5C 50.9483,49.7979 49.9483,49.4646 49.5,47.5 Z"/></g>
        <g><path style="opacity:0.008" fill="#d8ffff" d="M 55.5,47.5 C 56.675,47.281 57.675,47.6143 58.5,48.5C 56.9483,49.7979 55.9483,49.4646 55.5,47.5 Z"/></g>
        <g><path style="opacity:0.016" fill="#43febd" d="M 59.5,47.5 C 61.337,47.6395 61.6704,48.3061 60.5,49.5C 59.7025,49.0431 59.3691,48.3764 59.5,47.5 Z"/></g>
        <g><path style="opacity:0.008" fill="#9ef0b4" d="M 67.5,49.5 C 66.8333,49.5 66.1667,49.5 65.5,49.5C 62.8481,48.7063 63.0148,48.0396 66,47.5C 66.8333,47.8333 67.6667,48.1667 68.5,48.5C 68.3764,49.1067 68.0431,49.44 67.5,49.5 Z"/></g>
        <g><path style="opacity:0.098" fill="#25e8df" d="M 351.5,49.5 C 350.167,49.5 349.5,48.8333 349.5,47.5C 349.905,46.4502 350.571,46.4502 351.5,47.5C 352.773,48.2565 352.773,48.9232 351.5,49.5 Z"/></g>
        <g><path style="opacity:0.075" fill="#00fffe" d="M 365.5,49.5 C 364.833,49.5 364.167,49.5 363.5,49.5C 364.167,46.8333 364.833,46.8333 365.5,49.5 Z"/></g>
        <g><path style="opacity:0.024" fill="#fe00ff" d="M 65.5,49.5 C 66.1667,49.5 66.8333,49.5 67.5,49.5C 66.8333,52.1667 66.1667,52.1667 65.5,49.5 Z"/></g>
        <g><path style="opacity:0.039" fill="#79e5a9" d="M 363.5,49.5 C 363.5,50.1667 363.5,50.8333 363.5,51.5C 361.708,51.634 360.042,51.3007 358.5,50.5C 358.369,49.7611 358.536,49.0944 359,48.5C 360.356,49.3802 361.856,49.7135 363.5,49.5 Z"/></g>
        <g><path style="opacity:0.031" fill="#fe3ec3" d="M 363.5,49.5 C 364.167,49.5 364.833,49.5 365.5,49.5C 365.5,50.1667 365.5,50.8333 365.5,51.5C 364.833,51.5 364.167,51.5 363.5,51.5C 363.5,50.8333 363.5,50.1667 363.5,49.5 Z"/></g>
        <g><path style="opacity:0.031" fill="#00ffbc" d="M 365.5,49.5 C 366.833,49.5 367.5,50.1667 367.5,51.5C 366.833,51.5 366.167,51.5 365.5,51.5C 365.5,50.8333 365.5,50.1667 365.5,49.5 Z"/></g>
        <g><path style="opacity:0.059" fill="#d91c2f" d="M 358.5,50.5 C 357.833,51.1667 357.833,51.1667 358.5,50.5 Z"/></g>
        <g><path style="opacity:0.008" fill="#00fffe" d="M 49.5,51.5 C 51.337,51.6395 51.6704,52.3061 50.5,53.5C 49.7025,53.0431 49.3691,52.3764 49.5,51.5 Z"/></g>
        <g><path style="opacity:0.039" fill="#18fe93" d="M 363.5,51.5 C 364.167,51.5 364.833,51.5 365.5,51.5C 365.5,52.1667 365.5,52.8333 365.5,53.5C 364.167,53.5 363.5,52.8333 363.5,51.5 Z"/></g>
        <g><path style="opacity:0.008" fill="#fe0000" d="M 365.5,51.5 C 366.167,51.5 366.833,51.5 367.5,51.5C 367.5,52.8333 366.833,53.5 365.5,53.5C 365.5,52.8333 365.5,52.1667 365.5,51.5 Z"/></g>
        <g><path style="opacity:0.008" fill="#00fffe" d="M 57.5,53.5 C 59.337,53.6395 59.6704,54.3061 58.5,55.5C 57.7025,55.0431 57.3691,54.3764 57.5,53.5 Z"/></g>
        <g><path style="opacity:0.008" fill="#fe00ff" d="M 361.5,55.5 C 360.833,55.5 360.167,55.5 359.5,55.5C 360.167,52.8333 360.833,52.8333 361.5,55.5 Z"/></g>
        <g><path style="opacity:0.969" fill="#e1ac5c" d="M 77.5,47.5 C 74.7492,50.9199 71.4158,53.5865 67.5,55.5C 68.8253,50.485 72.1586,47.8183 77.5,47.5 Z"/></g>
        <g><path style="opacity:0.024" fill="#620083" d="M 361.5,55.5 C 362.833,56.1667 362.833,56.1667 361.5,55.5 Z"/></g>
        <g><path style="opacity:0.028" fill="#00fffe" d="M 49.5,57.5 C 50.8333,57.5 52.1667,57.5 53.5,57.5C 53.5,58.8333 53.5,60.1667 53.5,61.5C 49.5089,62.128 48.1755,60.7947 49.5,57.5 Z"/></g>
        <g><path style="opacity:0.09" fill="#97f382" d="M 64.5,55.5 C 62.2968,60.7091 58.6301,64.7091 53.5,67.5C 53.4606,66.4168 53.1272,65.4168 52.5,64.5C 55.9098,62.41 58.9098,59.7433 61.5,56.5C 62.325,55.6143 63.325,55.281 64.5,55.5 Z"/></g>
        <g><path style="opacity:0.031" fill="#0000c4" d="M 366.5,59.5 C 365.833,58.1667 365.833,58.1667 366.5,59.5 Z"/></g>
        <g><path style="opacity:0.059" fill="#8a1c9d" d="M 366.5,59.5 C 367.833,60.1667 367.833,60.1667 366.5,59.5 Z"/></g>
        <g><path style="opacity:1" fill="#fe1925" d="M 348.5,45.5 C 348.328,46.4916 348.662,47.1583 349.5,47.5C 349.5,48.8333 350.167,49.5 351.5,49.5C 352.918,51.3079 354.918,51.9746 357.5,51.5C 356.833,52.1667 356.167,52.8333 355.5,53.5C 357.856,56.817 360.69,59.817 364,62.5C 364.483,63.448 364.649,64.448 364.5,65.5C 365.833,65.5 367.167,65.5 368.5,65.5C 368.5,66.8333 369.167,67.5 370.5,67.5C 371.122,69.1216 372.122,70.4549 373.5,71.5C 373.5,72.8333 374.167,73.5 375.5,73.5C 375.5,74.8333 376.167,75.5 377.5,75.5C 377.833,76.8333 378.167,78.1667 378.5,79.5C 378.343,80.8734 378.51,82.2068 379,83.5C 382.407,85.745 385.24,88.4117 387.5,91.5C 270.505,93.4981 153.171,94.1647 35.5,93.5C 35.5,92.8333 35.5,92.1667 35.5,91.5C 36.8304,89.5082 38.1637,87.5082 39.5,85.5C 40.8333,85.5 41.5,84.8333 41.5,83.5C 41.9382,83.5654 42.2716,83.3988 42.5,83C 39.8924,79.9686 40.8924,78.6353 45.5,79C 47.3112,76.5288 48.9778,74.0288 50.5,71.5C 50.8333,71.5 51.1667,71.5 51.5,71.5C 52.6737,70.4863 53.3404,69.153 53.5,67.5C 58.6301,64.7091 62.2968,60.7091 64.5,55.5C 65.5,55.5 66.5,55.5 67.5,55.5C 71.4158,53.5865 74.7492,50.9199 77.5,47.5C 166.833,47.5 256.167,47.5 345.5,47.5C 346.222,46.4489 347.222,45.7822 348.5,45.5 Z"/></g>
        <g><path style="opacity:0.008" fill="#00ff75" d="M 371.5,63.5 C 372.833,64.1667 372.833,64.1667 371.5,63.5 Z"/></g>
        <g><path style="opacity:0.008" fill="#ff7ef8" d="M 379.5,65.5 C 377.663,65.3605 377.33,64.6939 378.5,63.5C 379.298,63.9569 379.631,64.6236 379.5,65.5 Z"/></g>
        <g><path style="opacity:1" fill="#d3ce76" d="M 355.5,53.5 C 357.199,53.5271 358.533,54.1938 359.5,55.5C 362.593,58.5898 365.927,61.5898 369.5,64.5C 369.376,65.1067 369.043,65.44 368.5,65.5C 367.167,65.5 365.833,65.5 364.5,65.5C 364.649,64.448 364.483,63.448 364,62.5C 360.69,59.817 357.856,56.817 355.5,53.5 Z"/></g>
        <g><path style="opacity:0.042" fill="#47f5ee" d="M 373.5,71.5 C 372.122,70.4549 371.122,69.1216 370.5,67.5C 370.821,65.9519 371.821,65.2852 373.5,65.5C 373.227,67.451 373.893,68.951 375.5,70C 374.956,70.7172 374.289,71.2172 373.5,71.5 Z"/></g>
        <g><path style="opacity:0.09" fill="#30febc" d="M 379.5,65.5 C 380.586,65.62 381.253,66.2867 381.5,67.5C 381.167,68.1667 380.833,68.8333 380.5,69.5C 379.571,68.3112 379.238,66.9778 379.5,65.5 Z"/></g>
        <g><path style="opacity:0.008" fill="#42e589" d="M 51.5,71.5 C 51.1667,71.5 50.8333,71.5 50.5,71.5C 49.5041,71.4142 48.6708,71.7476 48,72.5C 47.4973,66.1677 48.664,65.8344 51.5,71.5 Z"/></g>
        <g><path style="opacity:0.008" fill="#0ffe3e" d="M 375.5,73.5 C 376.833,73.5 378.167,73.5 379.5,73.5C 379.5,74.1667 379.5,74.8333 379.5,75.5C 378.833,75.5 378.167,75.5 377.5,75.5C 376.167,75.5 375.5,74.8333 375.5,73.5 Z"/></g>
        <g><path style="opacity:0.008" fill="#fe8000" d="M 379.5,73.5 C 382.167,74.1667 382.167,74.8333 379.5,75.5C 379.5,74.8333 379.5,74.1667 379.5,73.5 Z"/></g>
        <g><path style="opacity:0.031" fill="#fe003e" d="M 44.5,75.5 C 45.8333,76.1667 45.8333,76.1667 44.5,75.5 Z"/></g>
        <g><path style="opacity:0.031" fill="#003e16" d="M 39.5,77.5 C 40.8333,78.1667 40.8333,78.1667 39.5,77.5 Z"/></g>
        <g><path style="opacity:0.082" fill="#caff01" d="M 391.5,81.5 C 390.833,81.5 390.167,81.5 389.5,81.5C 389.62,80.4138 390.287,79.7472 391.5,79.5C 394.083,80.2418 394.083,80.9085 391.5,81.5 Z"/></g>
        <g><path style="opacity:0.008" fill="#fe8000" d="M 398.5,81.5 C 398.167,81.5 397.833,81.5 397.5,81.5C 397.369,80.6236 397.702,79.9569 398.5,79.5C 399.773,80.2565 399.773,80.9232 398.5,81.5 Z"/></g>
        <g><path style="opacity:0.024" fill="#3dfe70" d="M 33.5,85.5 C 31.8141,82.4633 32.8141,81.13 36.5,81.5C 36.5,82.8333 36.5,84.1667 36.5,85.5C 35.5,85.5 34.5,85.5 33.5,85.5 Z"/></g>
        <g><path style="opacity:0.032" fill="#01fffc" d="M 389.5,81.5 C 390.167,81.5 390.833,81.5 391.5,81.5C 390.833,82.8333 390.167,84.1667 389.5,85.5C 389.167,85.5 388.833,85.5 388.5,85.5C 387.876,85.0831 387.543,84.4164 387.5,83.5C 387.747,82.2867 388.414,81.62 389.5,81.5 Z"/></g>
        <g><path style="opacity:0.013" fill="#00fffe" d="M 397.5,81.5 C 397.833,81.5 398.167,81.5 398.5,81.5C 398.179,83.0481 397.179,83.7148 395.5,83.5C 395.5,82.1667 396.167,81.5 397.5,81.5 Z"/></g>
        <g><path style="opacity:0.039" fill="#6cff00" d="M 41.5,83.5 C 41.5,84.8333 40.8333,85.5 39.5,85.5C 39.5,84.1667 40.1667,83.5 41.5,83.5 Z"/></g>
        <g><path style="opacity:0.039" fill="#feff00" d="M 33.5,85.5 C 33.3605,87.337 32.6939,87.6704 31.5,86.5C 31.9569,85.7025 32.6236,85.3691 33.5,85.5 Z"/></g>
        <g><path style="opacity:0.013" fill="#e53ade" d="M 388.5,85.5 C 388.833,85.5 389.167,85.5 389.5,85.5C 391.796,85.8041 392.129,86.8041 390.5,88.5C 389.094,88.0269 388.427,87.0269 388.5,85.5 Z"/></g>
        <g><path style="opacity:0.008" fill="#b2e4b6" d="M 395.5,83.5 C 395.762,84.9778 395.429,86.3112 394.5,87.5C 394.167,86.8333 393.833,86.1667 393.5,85.5C 393.747,84.2867 394.414,83.62 395.5,83.5 Z"/></g>
        <g><path style="opacity:0.129" fill="#f18761" d="M 387.5,91.5 C 385.24,88.4117 382.407,85.745 379,83.5C 378.51,82.2068 378.343,80.8734 378.5,79.5C 379.151,78.9094 379.818,78.2427 380.5,77.5C 381.731,78.6507 381.731,79.8173 380.5,81C 384.205,83.574 386.538,87.074 387.5,91.5 Z"/></g>
        <g><path style="opacity:0.008" fill="#290e5b" d="M 33.5,88.5 C 34.7733,89.0768 34.7733,89.7435 33.5,90.5C 32.537,90.0302 32.537,89.3635 33.5,88.5 Z"/></g>
        <g><path style="opacity:0.067" fill="#15f549" d="M 390.5,88.5 C 391.906,88.9731 392.573,89.9731 392.5,91.5C 391.5,91.5 390.5,91.5 389.5,91.5C 389.167,91.5 388.833,91.5 388.5,91.5C 388.782,90.2223 389.449,89.2223 390.5,88.5 Z"/></g>
        <g><path style="opacity:0.016" fill="#000000" d="M 32.5,92.5 C 31.8333,91.1667 31.8333,91.1667 32.5,92.5 Z"/></g>
        <g><path style="opacity:0.039" fill="#1effaf" d="M 392.5,91.5 C 393.675,91.281 394.675,91.6143 395.5,92.5C 393.948,93.7979 392.948,93.4646 392.5,91.5 Z"/></g>
        <g><path style="opacity:0.008" fill="#00fffe" d="M 399.5,93.5 C 398.833,93.5 398.167,93.5 397.5,93.5C 398.167,90.8333 398.833,90.8333 399.5,93.5 Z"/></g>
        <g><path style="opacity:1" fill="#e59402" d="M 387.5,91.5 C 387.833,91.5 388.167,91.5 388.5,91.5C 388.833,91.5 389.167,91.5 389.5,91.5C 389.5,92.1667 389.5,92.8333 389.5,93.5C 389.631,94.2389 389.464,94.9056 389,95.5C 271.069,94.8343 153.236,94.1676 35.5,93.5C 153.171,94.1647 270.505,93.4981 387.5,91.5 Z"/></g>
        <g><path style="opacity:0.008" fill="#fe00ff" d="M 397.5,93.5 C 398.167,93.5 398.833,93.5 399.5,93.5C 398.833,96.1667 398.167,96.1667 397.5,93.5 Z"/></g>
        <g><path style="opacity:0.106" fill="#f6f82b" d="M 17.5,95.5 C 18.675,95.281 19.675,95.6143 20.5,96.5C 18.9483,97.7979 17.9483,97.4646 17.5,95.5 Z"/></g>
        <g><path style="opacity:0.008" fill="#00fffe" d="M 23.5,97.5 C 21.663,97.3605 21.3296,96.6939 22.5,95.5C 23.2975,95.9569 23.6309,96.6236 23.5,97.5 Z"/></g>
        <g><path style="opacity:1" fill="#fede04" d="M 35.5,91.5 C 35.5,92.1667 35.5,92.8333 35.5,93.5C 153.236,94.1676 271.069,94.8343 389,95.5C 389.464,94.9056 389.631,94.2389 389.5,93.5C 391.078,94.0656 392.412,95.0656 393.5,96.5C 394.711,97.7202 394.711,98.8869 393.5,100C 394.044,100.717 394.711,101.217 395.5,101.5C 396.167,101.5 396.833,101.5 397.5,101.5C 397.804,102.15 398.137,102.817 398.5,103.5C 397.833,103.833 397.167,104.167 396.5,104.5C 398.334,106.498 399.334,108.832 399.5,111.5C 400.5,111.5 401.5,111.5 402.5,111.5C 402.5,112.833 402.5,114.167 402.5,115.5C 409.569,115.743 409.903,116.577 403.5,118C 406.504,122.826 408.838,127.992 410.5,133.5C 411.265,132.388 412.265,131.721 413.5,131.5C 413.5,132.833 414.167,133.5 415.5,133.5C 415.5,134.167 415.5,134.833 415.5,135.5C 413.517,135.157 412.183,135.824 411.5,137.5C 411.5,138.5 411.5,139.5 411.5,140.5C 278.167,140.5 144.833,140.5 11.5,140.5C 13.14,139.21 13.64,137.543 13,135.5C 12.7216,136.416 12.2216,137.082 11.5,137.5C 11.5,136.167 11.5,134.833 11.5,133.5C 12.8333,133.5 13.5,132.833 13.5,131.5C 15.4435,130.922 15.7768,129.922 14.5,128.5C 15.7878,126.261 16.7878,123.928 17.5,121.5C 19.1765,120.817 19.8432,119.483 19.5,117.5C 21.1765,116.817 21.8432,115.483 21.5,113.5C 20.1667,113.5 18.8333,113.5 17.5,113.5C 17.5,112.833 17.5,112.167 17.5,111.5C 19.604,111.799 21.604,111.466 23.5,110.5C 24.6042,107.949 25.9375,105.616 27.5,103.5C 29.1095,101.208 30.7762,98.8749 32.5,96.5C 31.1931,95.135 31.1931,93.8016 32.5,92.5C 33.391,91.8902 34.391,91.5569 35.5,91.5 Z"/></g>
        <g><path style="opacity:0.016" fill="#00ff00" d="M 17.5,99.5 C 17.5,100.833 17.5,102.167 17.5,103.5C 16.4138,103.38 15.7472,102.713 15.5,101.5C 15.7472,100.287 16.4138,99.62 17.5,99.5 Z"/></g>
        <g><path style="opacity:0.024" fill="#00fffe" d="M 17.5,99.5 C 18.5862,99.62 19.2528,100.287 19.5,101.5C 19.2528,102.713 18.5862,103.38 17.5,103.5C 17.5,102.167 17.5,100.833 17.5,99.5 Z"/></g>
        <g><path style="opacity:0.024" fill="#d5eafe" d="M 23.5,97.5 C 25.8379,98.6484 25.6712,99.9817 23,101.5C 22.5,101.167 22,100.833 21.5,100.5C 22.6119,99.7348 23.2786,98.7348 23.5,97.5 Z"/></g>
        <g><path style="opacity:0.008" fill="#00ff00" d="M 397.5,101.5 C 396.833,101.5 396.167,101.5 395.5,101.5C 396.167,98.8333 396.833,98.8333 397.5,101.5 Z"/></g>
        <g><path style="opacity:0.008" fill="#008000" d="M 27.5,103.5 C 26.8333,102.167 26.8333,102.167 27.5,103.5 Z"/></g>
        <g><path style="opacity:0.008" fill="#00fffe" d="M 19.5,105.5 C 21.337,105.639 21.6704,106.306 20.5,107.5C 19.7025,107.043 19.3691,106.376 19.5,105.5 Z"/></g>
        <g><path style="opacity:0.024" fill="#feff00" d="M 17.5,111.5 C 15.663,111.361 15.3296,110.694 16.5,109.5C 17.2975,109.957 17.6309,110.624 17.5,111.5 Z"/></g>
        <g><path style="opacity:0.082" fill="#b6ff05" d="M 409.5,111.5 C 411.337,111.639 411.67,112.306 410.5,113.5C 409.702,113.043 409.369,112.376 409.5,111.5 Z"/></g>
        <g><path style="opacity:0.067" fill="#85ff00" d="M 17.5,113.5 C 17.762,114.978 17.4287,116.311 16.5,117.5C 16.1667,116.833 15.8333,116.167 15.5,115.5C 15.7472,114.287 16.4138,113.62 17.5,113.5 Z"/></g>
        <g><path style="opacity:0.016" fill="#08f0ff" d="M 19.5,117.5 C 18.475,117.103 18.3083,116.437 19,115.5C 19.4643,116.094 19.631,116.761 19.5,117.5 Z"/></g>
        <g><path style="opacity:0.008" fill="#0000ff" d="M 17.5,121.5 C 16.8333,120.167 16.8333,120.167 17.5,121.5 Z"/></g>
        <g><path style="opacity:0.051" fill="#30fe5f" d="M -0.5,127.5 C 6.16667,128.167 6.16667,128.833 -0.5,129.5C -0.5,128.833 -0.5,128.167 -0.5,127.5 Z"/></g>
        <g><path style="opacity:0.051" fill="#8fff00" d="M 413.5,125.5 C 414.586,125.62 415.253,126.287 415.5,127.5C 415.167,128.167 414.833,128.833 414.5,129.5C 413.571,128.311 413.238,126.978 413.5,125.5 Z"/></g>
        <g><path style="opacity:0.009" fill="#00fffe" d="M 9.5,129.5 C 11.4832,129.157 12.8166,129.824 13.5,131.5C 11.5168,131.843 10.1834,131.176 9.5,129.5 Z"/></g>
        <g><path style="opacity:0.021" fill="#fe00ff" d="M 7.5,131.5 C 7.5,132.167 7.5,132.833 7.5,133.5C 3.5,132.833 3.5,132.167 7.5,131.5 Z"/></g>
        <g><path style="opacity:0.008" fill="#fe00ff" d="M 413.5,131.5 C 414.833,131.5 415.5,132.167 415.5,133.5C 415.5,132.167 414.833,131.5 413.5,131.5 Z"/></g>
        <g><path style="opacity:0.075" fill="#81fab5" d="M 7.5,135.5 C 7.5,136.833 7.5,138.167 7.5,139.5C 5.71791,138.28 3.71791,137.614 1.5,137.5C 1.5,138.833 1.5,140.167 1.5,141.5C 5.52091,141.244 6.85425,142.91 5.5,146.5C 5.94242,147.739 6.60908,148.739 7.5,149.5C 7.5,150.167 7.5,150.833 7.5,151.5C 6.16667,150.833 4.83333,150.167 3.5,149.5C 3.7989,147.396 3.46557,145.396 2.5,143.5C 1.94316,145.332 0.943157,146.665 -0.5,147.5C -0.5,142.833 -0.5,138.167 -0.5,133.5C 0.734849,133.279 1.73485,132.612 2.5,131.5C 3.42869,132.689 3.76202,134.022 3.5,135.5C 4.83333,135.5 6.16667,135.5 7.5,135.5 Z"/></g>
        <g><path style="opacity:0.025" fill="#bff626" d="M 9.5,129.5 C 10.1834,131.176 11.5168,131.843 13.5,131.5C 13.5,132.833 12.8333,133.5 11.5,133.5C 10.6091,134.261 9.94242,135.261 9.5,136.5C 9.95689,137.298 10.6236,137.631 11.5,137.5C 12.2216,137.082 12.7216,136.416 13,135.5C 13.64,137.543 13.14,139.21 11.5,140.5C 11.5,140.833 11.5,141.167 11.5,141.5C 9.80072,141.473 8.46739,140.806 7.5,139.5C 7.5,138.167 7.5,136.833 7.5,135.5C 7.5,134.833 7.5,134.167 7.5,133.5C 7.5,132.833 7.5,132.167 7.5,131.5C 7.27858,130.265 6.61191,129.265 5.5,128.5C 6.16667,128.167 6.83333,127.833 7.5,127.5C 8.71335,127.747 9.38002,128.414 9.5,129.5 Z"/></g>
        <g><path style="opacity:0.008" fill="#fe00ff" d="M 11.5,133.5 C 11.5,134.833 11.5,136.167 11.5,137.5C 10.6236,137.631 9.95689,137.298 9.5,136.5C 9.94242,135.261 10.6091,134.261 11.5,133.5 Z"/></g>
        <g><path style="opacity:0.012" fill="#fe00ff" d="M 415.5,135.5 C 415.5,136.167 415.5,136.833 415.5,137.5C 414.833,137.5 414.167,137.5 413.5,137.5C 412.833,137.5 412.167,137.5 411.5,137.5C 412.183,135.824 413.517,135.157 415.5,135.5 Z"/></g>
        <g><path style="opacity:0.149" fill="#29febf" d="M 413.5,137.5 C 414.167,137.5 414.833,137.5 415.5,137.5C 415.768,139.099 415.434,140.432 414.5,141.5C 414.167,141.5 413.833,141.5 413.5,141.5C 413.5,140.167 413.5,138.833 413.5,137.5 Z"/></g>
        <g><path style="opacity:1" fill="#ee9a02" d="M 411.5,137.5 C 412.167,137.5 412.833,137.5 413.5,137.5C 413.5,138.833 413.5,140.167 413.5,141.5C 279.5,141.5 145.5,141.5 11.5,141.5C 11.5,141.167 11.5,140.833 11.5,140.5C 144.833,140.5 278.167,140.5 411.5,140.5C 411.5,139.5 411.5,138.5 411.5,137.5 Z"/></g>
        <g><path style="opacity:0.037" fill="#feff00" d="M 7.5,143.5 C 8.58617,143.62 9.25284,144.287 9.5,145.5C 9.25284,146.713 8.58617,147.38 7.5,147.5C 7.5,146.167 7.5,144.833 7.5,143.5 Z"/></g>
        <g><path style="opacity:0.008" fill="#ff44ec" d="M 7.5,139.5 C 7.5,140.833 7.5,142.167 7.5,143.5C 7.5,144.833 7.5,146.167 7.5,147.5C 7.5,148.167 7.5,148.833 7.5,149.5C 6.60908,148.739 5.94242,147.739 5.5,146.5C 6.85425,142.91 5.52091,141.244 1.5,141.5C 1.5,140.167 1.5,138.833 1.5,137.5C 3.71791,137.614 5.71791,138.28 7.5,139.5 Z"/></g>
        <g><path style="opacity:1" fill="#fe1c24" d="M 7.5,139.5 C 8.46739,140.806 9.80072,141.473 11.5,141.5C 145.5,141.5 279.5,141.5 413.5,141.5C 413.833,141.5 414.167,141.5 414.5,141.5C 414.5,142.167 414.5,142.833 414.5,143.5C 414.062,143.435 413.728,143.601 413.5,144C 414.459,145.707 415.125,147.541 415.5,149.5C 415.747,150.713 416.414,151.38 417.5,151.5C 416.964,154.698 417.631,157.365 419.5,159.5C 419.141,162.783 419.808,166.116 421.5,169.5C 421.082,176.003 421.748,182.336 423.5,188.5C 282.126,188.83 140.793,188.497 -0.5,187.5C -0.5,186.833 -0.5,186.167 -0.5,185.5C 1.23247,182.961 2.23247,179.961 2.5,176.5C 1.69063,174.929 1.35729,173.262 1.5,171.5C 3.42277,167.971 4.08943,163.971 3.5,159.5C 3.83333,159.5 4.16667,159.5 4.5,159.5C 6.02334,157.104 7.02334,154.438 7.5,151.5C 7.5,150.833 7.5,150.167 7.5,149.5C 7.5,148.833 7.5,148.167 7.5,147.5C 8.58617,147.38 9.25284,146.713 9.5,145.5C 9.25284,144.287 8.58617,143.62 7.5,143.5C 7.5,142.167 7.5,140.833 7.5,139.5 Z"/></g>
        <g><path style="opacity:0.008" fill="#ff61ff" d="M 3.5,149.5 C 3.16667,149.5 2.83333,149.5 2.5,149.5C 1.56552,150.568 1.23219,151.901 1.5,153.5C 0.833333,153.5 0.166667,153.5 -0.5,153.5C -0.5,151.5 -0.5,149.5 -0.5,147.5C 0.943157,146.665 1.94316,145.332 2.5,143.5C 3.46557,145.396 3.7989,147.396 3.5,149.5 Z"/></g>
        <g><path style="opacity:0.016" fill="#a6f853" d="M 414.5,143.5 C 416.856,145.557 417.856,148.224 417.5,151.5C 416.414,151.38 415.747,150.713 415.5,149.5C 415.125,147.541 414.459,145.707 413.5,144C 413.728,143.601 414.062,143.435 414.5,143.5 Z"/></g>
        <g><path style="opacity:0.008" fill="#ff40ff" d="M 2.5,149.5 C 2.72142,150.735 3.38809,151.735 4.5,152.5C 3.87277,153.417 3.53944,154.417 3.5,155.5C 2.83333,155.5 2.16667,155.5 1.5,155.5C 1.5,154.833 1.5,154.167 1.5,153.5C 1.23219,151.901 1.56552,150.568 2.5,149.5 Z"/></g>
        <g><path style="opacity:0.014" fill="#b1fd10" d="M 2.5,149.5 C 2.83333,149.5 3.16667,149.5 3.5,149.5C 4.83333,150.167 6.16667,150.833 7.5,151.5C 7.02334,154.438 6.02334,157.104 4.5,159.5C 4.67158,158.508 4.33825,157.842 3.5,157.5C 3.5,156.833 3.5,156.167 3.5,155.5C 3.53944,154.417 3.87277,153.417 4.5,152.5C 3.38809,151.735 2.72142,150.735 2.5,149.5 Z"/></g>
        <g><path style="opacity:0.058" fill="#fbf91f" d="M 417.5,151.5 C 418.371,154.003 419.037,156.67 419.5,159.5C 417.631,157.365 416.964,154.698 417.5,151.5 Z"/></g>
        <g><path style="opacity:0.008" fill="#fe00ff" d="M 1.5,155.5 C 2.16667,155.5 2.83333,155.5 3.5,155.5C 3.5,156.167 3.5,156.833 3.5,157.5C 2.16667,157.5 1.5,156.833 1.5,155.5 Z"/></g>
        <g><path style="opacity:0.018" fill="#92f4d8" d="M -0.5,153.5 C 0.166667,153.5 0.833333,153.5 1.5,153.5C 1.5,154.167 1.5,154.833 1.5,155.5C 1.5,156.833 2.16667,157.5 3.5,157.5C 4.33825,157.842 4.67158,158.508 4.5,159.5C 4.16667,159.5 3.83333,159.5 3.5,159.5C 1.57723,163.029 0.910565,167.029 1.5,171.5C 1.35729,173.262 1.69063,174.929 2.5,176.5C 2.23247,179.961 1.23247,182.961 -0.5,185.5C -0.5,174.833 -0.5,164.167 -0.5,153.5 Z"/></g>
        <g><path style="opacity:0.008" fill="#98fefe" d="M 3.5,159.5 C 4.08943,163.971 3.42277,167.971 1.5,171.5C 0.910565,167.029 1.57723,163.029 3.5,159.5 Z"/></g>
        <g><path style="opacity:0.016" fill="#feff00" d="M 424.5,159.5 C 424.5,160.833 424.5,162.167 424.5,163.5C 423.167,162.167 423.167,160.833 424.5,159.5 Z"/></g>
        <g><path style="opacity:1" fill="#e68a6b" d="M 421.5,169.5 C 422.018,172.979 423.018,176.312 424.5,179.5C 424.5,182.833 424.5,186.167 424.5,189.5C 424.167,189.5 423.833,189.5 423.5,189.5C 423.5,189.167 423.5,188.833 423.5,188.5C 421.748,182.336 421.082,176.003 421.5,169.5 Z"/></g>
        <g><path style="opacity:1" fill="#fec640" d="M -0.5,187.5 C 140.793,188.497 282.126,188.83 423.5,188.5C 423.5,188.833 423.5,189.167 423.5,189.5C 282.833,189.5 142.167,189.5 1.5,189.5C 1.66409,192.187 1.49742,194.854 1,197.5C 0.721579,198.416 0.221579,199.082 -0.5,199.5C -0.5,195.5 -0.5,191.5 -0.5,187.5 Z"/></g>
        <g><path style="opacity:1" fill="#fede00" d="M 423.5,189.5 C 423.833,189.5 424.167,189.5 424.5,189.5C 424.5,204.833 424.5,220.167 424.5,235.5C 282.833,235.5 141.167,235.5 -0.5,235.5C -0.5,223.5 -0.5,211.5 -0.5,199.5C 0.221579,199.082 0.721579,198.416 1,197.5C 1.49742,194.854 1.66409,192.187 1.5,189.5C 142.167,189.5 282.833,189.5 423.5,189.5 Z"/></g>
        <g><path style="opacity:0.008" fill="#00ff00" d="M -0.5,239.5 C 1.17649,240.183 1.84316,241.517 1.5,243.5C 0.833333,243.5 0.166667,243.5 -0.5,243.5C -0.5,242.167 -0.5,240.833 -0.5,239.5 Z"/></g>
        <g><path style="opacity:1" fill="#fe1825" d="M -0.5,235.5 C 141.167,235.5 282.833,235.5 424.5,235.5C 424.5,240.833 424.5,246.167 424.5,251.5C 423.662,251.158 423.328,250.492 423.5,249.5C 423.539,248.244 423.039,247.244 422,246.5C 421.503,248.81 421.337,251.143 421.5,253.5C 421.102,257.761 420.102,261.761 418.5,265.5C 417.539,267.265 417.205,269.265 417.5,271.5C 415.714,274.958 414.381,278.624 413.5,282.5C 279.57,281.502 145.57,281.169 11.5,281.5C 11.7076,279.08 11.3742,276.747 10.5,274.5C 12.1667,273.833 13.8333,273.167 15.5,272.5C 14.675,271.614 13.675,271.281 12.5,271.5C 12.1667,267.5 11.8333,267.5 11.5,271.5C 9.86124,271.074 8.52791,271.074 7.5,271.5C 5.59303,267.099 4.25969,262.433 3.5,257.5C 3.67802,253.878 3.01136,250.544 1.5,247.5C 1.5,246.167 1.5,244.833 1.5,243.5C 1.84316,241.517 1.17649,240.183 -0.5,239.5C -0.5,238.167 -0.5,236.833 -0.5,235.5 Z"/></g>
        <g><path style="opacity:0.029" fill="#4dfe07" d="M 423.5,249.5 C 422.566,250.568 422.232,251.901 422.5,253.5C 422.167,253.5 421.833,253.5 421.5,253.5C 421.337,251.143 421.503,248.81 422,246.5C 423.039,247.244 423.539,248.244 423.5,249.5 Z"/></g>
        <g><path style="opacity:0.01" fill="#00fffe" d="M 423.5,249.5 C 423.328,250.492 423.662,251.158 424.5,251.5C 424.5,252.833 424.5,254.167 424.5,255.5C 423.833,254.833 423.167,254.167 422.5,253.5C 422.232,251.901 422.566,250.568 423.5,249.5 Z"/></g>
        <g><path style="opacity:0.173" fill="#d7f46b" d="M 1.5,247.5 C 3.01136,250.544 3.67802,253.878 3.5,257.5C 1.59771,254.663 0.931042,251.329 1.5,247.5 Z"/></g>
        <g><path style="opacity:0.008" fill="#00ff00" d="M 424.5,263.5 C 424.5,264.833 424.5,266.167 424.5,267.5C 423.167,266.167 423.167,264.833 424.5,263.5 Z"/></g>
        <g><path style="opacity:0.012" fill="#03faff" d="M 1.5,265.5 C 5.02888,266.03 5.36222,267.363 2.5,269.5C 1.57131,268.311 1.23798,266.978 1.5,265.5 Z"/></g>
        <g><path style="opacity:0.039" fill="#4efe9e" d="M 418.5,265.5 C 418.833,266.833 419.167,268.167 419.5,269.5C 419.5,270.167 419.5,270.833 419.5,271.5C 418.833,271.5 418.167,271.5 417.5,271.5C 417.205,269.265 417.539,267.265 418.5,265.5 Z"/></g>
        <g><path style="opacity:0.008" fill="#fe00ff" d="M 419.5,269.5 C 422.167,270.167 422.167,270.833 419.5,271.5C 419.5,270.833 419.5,270.167 419.5,269.5 Z"/></g>
        <g><path style="opacity:0.059" fill="#00bcaa" d="M 2.5,270.5 C 3.83333,271.167 3.83333,271.167 2.5,270.5 Z"/></g>
        <g><path style="opacity:0.008" fill="#00ff00" d="M 1.5,275.5 C 1.63945,273.663 2.30612,273.33 3.5,274.5C 3.04311,275.298 2.37644,275.631 1.5,275.5 Z"/></g>
        <g><path style="opacity:0.008" fill="#00ff00" d="M 7.5,273.5 C 7.5,274.167 7.5,274.833 7.5,275.5C 4.83333,274.833 4.83333,274.167 7.5,273.5 Z"/></g>
        <g><path style="opacity:0.008" fill="#00ff00" d="M -0.5,275.5 C 0.166667,275.5 0.833333,275.5 1.5,275.5C 1.5,276.833 0.833333,277.5 -0.5,277.5C -0.5,276.833 -0.5,276.167 -0.5,275.5 Z"/></g>
        <g><path style="opacity:0.016" fill="#00fffe" d="M 3.5,283.5 C 3.63945,281.663 4.30612,281.33 5.5,282.5C 5.04311,283.298 4.37644,283.631 3.5,283.5 Z"/></g>
        <g><path style="opacity:1" fill="#e65a1c" d="M 413.5,282.5 C 413.5,282.833 413.5,283.167 413.5,283.5C 280.833,283.5 148.167,283.5 15.5,283.5C 14.1667,283.5 12.8333,283.5 11.5,283.5C 10.1672,280.845 8.83386,278.178 7.5,275.5C 7.5,274.833 7.5,274.167 7.5,273.5C 7.5,272.833 7.5,272.167 7.5,271.5C 8.52791,271.074 9.86124,271.074 11.5,271.5C 11.8333,267.5 12.1667,267.5 12.5,271.5C 13.675,271.281 14.675,271.614 15.5,272.5C 13.8333,273.167 12.1667,273.833 10.5,274.5C 11.3742,276.747 11.7076,279.08 11.5,281.5C 145.57,281.169 279.57,281.502 413.5,282.5 Z"/></g>
        <g><path style="opacity:0.106" fill="#b2fe6e" d="M -0.5,281.5 C 0.833333,282.167 2.16667,282.833 3.5,283.5C 3.5,284.167 3.5,284.833 3.5,285.5C 2.16667,285.5 0.833333,285.5 -0.5,285.5C -0.5,284.167 -0.5,282.833 -0.5,281.5 Z"/></g>
        <g><path style="opacity:1" fill="#feed04" d="M 15.5,283.5 C 148.167,283.5 280.833,283.5 413.5,283.5C 414.833,283.5 415.5,284.167 415.5,285.5C 414.833,285.5 414.167,285.5 413.5,285.5C 412.203,287.371 411.203,289.371 410.5,291.5C 410.5,289.5 410.5,287.5 410.5,285.5C 278.496,286.165 146.829,285.498 15.5,283.5 Z"/></g>
        <g><path style="opacity:0.016" fill="#fe00ff" d="M 3.5,285.5 C 4.16667,285.5 4.83333,285.5 5.5,285.5C 5.5,286.167 5.5,286.833 5.5,287.5C 4.16667,287.5 3.5,286.833 3.5,285.5 Z"/></g>
        <g><path style="opacity:0.02" fill="#43febd" d="M 5.5,285.5 C 10.8333,286.167 10.8333,286.833 5.5,287.5C 5.5,286.833 5.5,286.167 5.5,285.5 Z"/></g>
        <g><path style="opacity:1" fill="#fede02" d="M 11.5,283.5 C 12.8333,283.5 14.1667,283.5 15.5,283.5C 146.829,285.498 278.496,286.165 410.5,285.5C 410.5,287.5 410.5,289.5 410.5,291.5C 408.209,295.934 406.209,300.601 404.5,305.5C 404.68,306.554 405.013,307.554 405.5,308.5C 404.248,310.001 403.248,311.668 402.5,313.5C 401.833,312.833 401.167,312.167 400.5,311.5C 399.49,314.183 398.49,316.849 397.5,319.5C 396.624,319.369 395.957,319.702 395.5,320.5C 393.636,323.332 392.303,326.332 391.5,329.5C 389.167,329.5 386.833,329.5 384.5,329.5C 384.389,328.883 384.056,328.383 383.5,328C 327.333,327.833 271.167,327.667 215,327.5C 158.496,327.5 102.329,328.167 46.5,329.5C 42.8333,329.5 39.1667,329.5 35.5,329.5C 34.1667,329.5 32.8333,329.5 31.5,329.5C 32.2259,325.693 30.8926,323.026 27.5,321.5C 27.8432,319.517 27.1765,318.183 25.5,317.5C 23.3412,311.849 20.6745,306.516 17.5,301.5C 16.0824,296.166 13.7491,291.333 10.5,287C 10.6526,285.791 10.9859,284.625 11.5,283.5 Z"/></g>
        <g><path style="opacity:0.008" fill="#fe00ff" d="M 413.5,285.5 C 414.167,285.5 414.833,285.5 415.5,285.5C 414.833,288.167 414.167,288.167 413.5,285.5 Z"/></g>
        <g><path style="opacity:0.024" fill="#00ff00" d="M -0.5,287.5 C 2.16667,288.167 2.16667,288.833 -0.5,289.5C -0.5,288.833 -0.5,288.167 -0.5,287.5 Z"/></g>
        <g><path style="opacity:0.034" fill="#f6ff0a" d="M 3.5,289.5 C 5.24693,290.981 6.41359,292.981 7,295.5C 7.04144,300.618 6.04144,300.618 4,295.5C 3.50454,293.527 3.33788,291.527 3.5,289.5 Z"/></g>
        <g><path style="opacity:0.067" fill="#c1ff5a" d="M -0.5,295.5 C 0.747897,296.334 1.41456,297.667 1.5,299.5C 1.41456,301.333 0.747897,302.666 -0.5,303.5C -0.5,300.833 -0.5,298.167 -0.5,295.5 Z"/></g>
        <g><path style="opacity:0.051" fill="#c7ff00" d="M 11.5,295.5 C 13.1207,295.787 14.1207,296.787 14.5,298.5C 13.9851,300.225 13.3184,301.892 12.5,303.5C 11.52,300.914 11.1866,298.247 11.5,295.5 Z"/></g>
        <g><path style="opacity:0.012" fill="#00ff00" d="M 17.5,301.5 C 17.762,302.978 17.4287,304.311 16.5,305.5C 16.1667,304.833 15.8333,304.167 15.5,303.5C 15.7472,302.287 16.4138,301.62 17.5,301.5 Z"/></g>
        <g><path style="opacity:0.039" fill="#f9ff00" d="M 407.5,307.5 C 407.603,304.436 408.936,303.436 411.5,304.5C 410.412,305.934 409.078,306.934 407.5,307.5 Z"/></g>
        <g><path style="opacity:0.039" fill="#feff00" d="M 413.5,305.5 C 414.586,305.62 415.253,306.287 415.5,307.5C 415.167,308.167 414.833,308.833 414.5,309.5C 413.571,308.311 413.238,306.978 413.5,305.5 Z"/></g>
        <g><path style="opacity:0.008" fill="#000000" d="M 407.5,307.5 C 406.833,308.167 406.833,308.167 407.5,307.5 Z"/></g>
        <g><path style="opacity:0.024" fill="#00ff00" d="M 411.5,311.5 C 413.337,311.639 413.67,312.306 412.5,313.5C 411.702,313.043 411.369,312.376 411.5,311.5 Z"/></g>
        <g><path style="opacity:0.024" fill="#feff00" d="M 25.5,317.5 C 25.5,318.167 25.5,318.833 25.5,319.5C 22.8333,318.833 22.8333,318.167 25.5,317.5 Z"/></g>
        <g><path style="opacity:0.014" fill="#fe00ff" d="M 25.5,317.5 C 27.1765,318.183 27.8432,319.517 27.5,321.5C 26.1667,321.5 25.5,320.833 25.5,319.5C 25.5,318.833 25.5,318.167 25.5,317.5 Z"/></g>
        <g><path style="opacity:0.008" fill="#feff00" d="M 403.5,317.5 C 405.337,317.639 405.67,318.306 404.5,319.5C 403.702,319.043 403.369,318.376 403.5,317.5 Z"/></g>
        <g><path style="opacity:0.008" fill="#ffacfe" d="M 413.5,315.5 C 414.586,315.62 415.253,316.287 415.5,317.5C 415.167,318.167 414.833,318.833 414.5,319.5C 413.571,318.311 413.238,316.978 413.5,315.5 Z"/></g>
        <g><path style="opacity:0.051" fill="#c9ff18" d="M 15.5,313.5 C 19.1318,314.733 20.7984,317.399 20.5,321.5C 16.8431,321.88 15.8431,320.547 17.5,317.5C 16.7745,316.133 16.1079,314.8 15.5,313.5 Z"/></g>
        <g><path style="opacity:0.059" fill="#d0f100" d="M 397.5,319.5 C 400.167,320.167 400.167,320.833 397.5,321.5C 397.5,320.833 397.5,320.167 397.5,319.5 Z"/></g>
        <g><path style="opacity:0.008" fill="#0000ff" d="M 397.5,321.5 C 396.833,322.167 396.833,322.167 397.5,321.5 Z"/></g>
        <g><path style="opacity:0.031" fill="#00fffe" d="M 397.5,325.5 C 396.833,325.5 396.167,325.5 395.5,325.5C 396.167,322.833 396.833,322.833 397.5,325.5 Z"/></g>
        <g><path style="opacity:0.051" fill="#a6ff00" d="M 15.5,325.5 C 16.5862,325.62 17.2528,326.287 17.5,327.5C 17.1667,328.167 16.8333,328.833 16.5,329.5C 15.5713,328.311 15.238,326.978 15.5,325.5 Z"/></g>
        <g><path style="opacity:0.039" fill="#69ff00" d="M 29.5,329.5 C 26.3306,328.495 25.3306,326.495 26.5,323.5C 28.0383,325.243 29.0383,327.243 29.5,329.5 Z"/></g>
        <g><path style="opacity:0.082" fill="#fed60b" d="M 395.5,325.5 C 396.167,325.5 396.833,325.5 397.5,325.5C 398.376,325.369 399.043,325.702 399.5,326.5C 398.388,327.265 397.721,328.265 397.5,329.5C 395.824,328.817 395.157,327.483 395.5,325.5 Z"/></g>
        <g><path style="opacity:1" fill="#ffed00" d="M 384.5,329.5 C 271.833,329.5 159.167,329.5 46.5,329.5C 102.329,328.167 158.496,327.5 215,327.5C 271.167,327.667 327.333,327.833 383.5,328C 384.056,328.383 384.389,328.883 384.5,329.5 Z"/></g>
        <g><path style="opacity:0.008" fill="#feff00" d="M 21.5,329.5 C 23.337,329.639 23.6704,330.306 22.5,331.5C 21.7025,331.043 21.3691,330.376 21.5,329.5 Z"/></g>
        <g><path style="opacity:0.024" fill="#9bff00" d="M 29.5,329.5 C 30.1667,329.5 30.8333,329.5 31.5,329.5C 31.5,330.167 31.5,330.833 31.5,331.5C 30.1667,331.5 29.5,330.833 29.5,329.5 Z"/></g>
        <g><path style="opacity:0.025" fill="#ff3bf8" d="M 31.5,329.5 C 32.8333,329.5 34.1667,329.5 35.5,329.5C 35.5,330.167 35.5,330.833 35.5,331.5C 34.1667,331.5 32.8333,331.5 31.5,331.5C 31.5,330.833 31.5,330.167 31.5,329.5 Z"/></g>
        <g><path style="opacity:0.016" fill="#00fffe" d="M 397.5,329.5 C 399.424,329.711 399.757,330.377 398.5,331.5C 398.167,331.5 397.833,331.5 397.5,331.5C 397.5,330.833 397.5,330.167 397.5,329.5 Z"/></g>
        <g><path style="opacity:0.051" fill="#9bf6fc" d="M 391.5,329.5 C 392.376,329.369 393.043,329.702 393.5,330.5C 393.058,331.739 392.391,332.739 391.5,333.5C 390.167,333.5 389.5,332.833 389.5,331.5C 390.833,331.5 391.5,330.833 391.5,329.5 Z"/></g>
        <g><path style="opacity:0.01" fill="#fe00ff" d="M 397.5,331.5 C 397.833,331.5 398.167,331.5 398.5,331.5C 398.5,332.167 398.5,332.833 398.5,333.5C 397.833,333.5 397.167,333.5 396.5,333.5C 395.243,332.377 395.576,331.711 397.5,331.5 Z"/></g>
        <g><path style="opacity:0.082" fill="#74ff05" d="M 15.5,333.5 C 17.337,333.639 17.6704,334.306 16.5,335.5C 15.7025,335.043 15.3691,334.376 15.5,333.5 Z"/></g>
        <g><path style="opacity:0.024" fill="#feff00" d="M 25.5,333.5 C 27.337,333.639 27.6704,334.306 26.5,335.5C 25.7025,335.043 25.3691,334.376 25.5,333.5 Z"/></g>
        <g><path style="opacity:0.039" fill="#c1e76a" d="M 31.5,331.5 C 32.8333,331.5 34.1667,331.5 35.5,331.5C 38.2952,334.309 40.2952,337.642 41.5,341.5C 38.5469,339.226 35.5469,336.893 32.5,334.5C 31.8728,333.583 31.5394,332.583 31.5,331.5 Z"/></g>
        <g><path style="opacity:1" fill="#fd1b24" d="M 35.5,329.5 C 39.1667,329.5 42.8333,329.5 46.5,329.5C 159.167,329.5 271.833,329.5 384.5,329.5C 386.833,329.5 389.167,329.5 391.5,329.5C 391.5,330.833 390.833,331.5 389.5,331.5C 388.326,332.514 387.66,333.847 387.5,335.5C 387.19,336.738 386.69,336.738 386,335.5C 384.167,337.833 382.333,340.167 380.5,342.5C 381.325,343.386 382.325,343.719 383.5,343.5C 383.769,345.429 383.269,347.095 382,348.5C 381,346.833 380,345.167 379,343.5C 377.438,345.504 376.938,347.504 377.5,349.5C 376.167,349.5 375.5,350.167 375.5,351.5C 375.095,352.55 374.429,352.55 373.5,351.5C 372.144,355.421 370.144,358.088 367.5,359.5C 366.127,359.343 364.793,359.51 363.5,360C 361.147,362.917 358.48,365.417 355.5,367.5C 352.78,367.631 350.113,368.131 347.5,369C 348.938,369.219 350.271,369.719 351.5,370.5C 349.976,372.858 347.976,374.691 345.5,376C 256.097,376.83 166.763,376.664 77.5,375.5C 76.8333,375.5 76.1667,375.5 75.5,375.5C 74.2223,375.218 73.2223,374.551 72.5,373.5C 70.7339,370.792 68.4006,368.792 65.5,367.5C 64.8166,365.824 63.4832,365.157 61.5,365.5C 61.2527,362.026 60.2527,361.359 58.5,363.5C 57.8182,362.757 57.1515,362.091 56.5,361.5C 57.7377,358.036 56.4044,356.036 52.5,355.5C 52.6716,354.508 52.3382,353.842 51.5,353.5C 51.8333,349.167 49.8333,347.167 45.5,347.5C 46.5063,346.604 46.5063,345.938 45.5,345.5C 44.8333,343.5 43.5,342.167 41.5,341.5C 40.2952,337.642 38.2952,334.309 35.5,331.5C 35.5,330.833 35.5,330.167 35.5,329.5 Z"/></g>
        <g><path style="opacity:0.03" fill="#2adce5" d="M 389.5,331.5 C 389.5,332.833 390.167,333.5 391.5,333.5C 391.649,334.552 391.483,335.552 391,336.5C 389.989,335.663 388.822,335.33 387.5,335.5C 387.66,333.847 388.326,332.514 389.5,331.5 Z"/></g>
        <g><path style="opacity:0.058" fill="#00fe03" d="M 396.5,333.5 C 397.167,333.5 397.833,333.5 398.5,333.5C 399.885,334.302 399.718,334.969 398,335.5C 396.97,335.164 396.47,334.497 396.5,333.5 Z"/></g>
        <g><path style="opacity:0.016" fill="#000000" d="M 384.5,338.5 C 385.833,339.167 385.833,339.167 384.5,338.5 Z"/></g>
        <g><path style="opacity:0.051" fill="#a4cd1c" d="M 41.5,341.5 C 43.5,342.167 44.8333,343.5 45.5,345.5C 42.821,345.475 41.4877,344.142 41.5,341.5 Z"/></g>
        <g><path style="opacity:0.039" fill="#00fffe" d="M 35.5,347.5 C 35.5,348.167 35.5,348.833 35.5,349.5C 32.8333,348.833 32.8333,348.167 35.5,347.5 Z"/></g>
        <g><path style="opacity:0.024" fill="#fe00ae" d="M 35.5,347.5 C 36.8333,347.5 37.5,348.167 37.5,349.5C 36.8333,349.5 36.1667,349.5 35.5,349.5C 35.5,348.833 35.5,348.167 35.5,347.5 Z"/></g>
        <g><path style="opacity:0.051" fill="#0b0c0b" d="M 379.5,347.5 C 380.833,348.167 380.833,348.167 379.5,347.5 Z"/></g>
        <g><path style="opacity:0.141" fill="#cec996" d="M 45.5,347.5 C 49.8333,347.167 51.8333,349.167 51.5,353.5C 49.3484,354.077 49.015,355.244 50.5,357C 49.552,357.483 48.552,357.649 47.5,357.5C 47.5,355.5 47.5,353.5 47.5,351.5C 48.0431,351.44 48.3764,351.107 48.5,350.5C 47.0065,349.859 46.0065,348.859 45.5,347.5 Z"/></g>
        <g><path style="opacity:0.039" fill="#0cffed" d="M 35.5,349.5 C 36.1667,349.5 36.8333,349.5 37.5,349.5C 36.8333,352.167 36.1667,352.167 35.5,349.5 Z"/></g>
        <g><path style="opacity:0.008" fill="#feff00" d="M 41.5,349.5 C 43.337,349.639 43.6704,350.306 42.5,351.5C 41.7025,351.043 41.3691,350.376 41.5,349.5 Z"/></g>
        <g><path style="opacity:0.02" fill="#5bfd00" d="M 377.5,349.5 C 378.376,349.369 379.043,349.702 379.5,350.5C 378.311,351.429 376.978,351.762 375.5,351.5C 375.5,350.167 376.167,349.5 377.5,349.5 Z"/></g>
        <g><path style="opacity:0.041" fill="#8dd6d8" d="M 380.5,350.5 C 381.386,349.224 382.386,349.224 383.5,350.5C 382.575,351.562 381.575,351.562 380.5,350.5 Z"/></g>
        <g><path style="opacity:0.024" fill="#00abff" d="M 47.5,351.5 C 46.8333,350.167 46.8333,350.167 47.5,351.5 Z"/></g>
        <g><path style="opacity:0.039" fill="#886600" d="M 52.5,355.5 C 51.8333,356.167 51.8333,356.167 52.5,355.5 Z"/></g>
        <g><path style="opacity:0.016" fill="#00fffe" d="M 373.5,357.5 C 373.948,355.535 374.948,355.202 376.5,356.5C 375.675,357.386 374.675,357.719 373.5,357.5 Z"/></g>
        <g><path style="opacity:0.031" fill="#93ec6c" d="M 377.5,353.5 C 380.012,353.423 382.012,354.423 383.5,356.5C 381.668,357.248 380.001,358.248 378.5,359.5C 377.534,357.604 377.201,355.604 377.5,353.5 Z"/></g>
        <g><path style="opacity:0.044" fill="#00fffe" d="M 373.5,357.5 C 373.361,359.337 372.694,359.67 371.5,358.5C 371.957,357.702 372.624,357.369 373.5,357.5 Z"/></g>
        <g><path style="opacity:0.016" fill="#fe00c3" d="M 374.5,358.5 C 375.833,359.167 375.833,359.167 374.5,358.5 Z"/></g>
        <g><path style="opacity:0.016" fill="#a4ff5a" d="M 49.5,365.5 C 48.8921,364.2 48.2255,362.867 47.5,361.5C 47.8333,360.833 48.1667,360.167 48.5,359.5C 49.5237,360.853 50.857,361.52 52.5,361.5C 52.3573,363.262 52.6906,364.929 53.5,366.5C 53.1667,366.833 52.8333,367.167 52.5,367.5C 51.7348,366.388 50.7348,365.721 49.5,365.5 Z"/></g>
        <g><path style="opacity:0.016" fill="#fe0000" d="M 56.5,361.5 C 55.8333,362.167 55.8333,362.167 56.5,361.5 Z"/></g>
        <g><path style="opacity:0.016" fill="#f302fb" d="M 367.5,361.5 C 367.672,362.492 367.338,363.158 366.5,363.5C 366.167,363.5 365.833,363.5 365.5,363.5C 365.5,362.167 366.167,361.5 367.5,361.5 Z"/></g>
        <g><path style="opacity:0.039" fill="#3efecd" d="M 377.5,363.5 C 376.325,363.719 375.325,363.386 374.5,362.5C 376.052,361.202 377.052,361.535 377.5,363.5 Z"/></g>
        <g><path style="opacity:0.016" fill="#00ff00" d="M 373.5,365.5 C 371.663,365.361 371.33,364.694 372.5,363.5C 373.298,363.957 373.631,364.624 373.5,365.5 Z"/></g>
        <g><path style="opacity:0.008" fill="#00fffe" d="M 377.5,363.5 C 379.337,363.639 379.67,364.306 378.5,365.5C 377.702,365.043 377.369,364.376 377.5,363.5 Z"/></g>
        <g><path style="opacity:0.016" fill="#00fffe" d="M 49.5,365.5 C 49.3605,367.337 48.6939,367.67 47.5,366.5C 47.9569,365.702 48.6236,365.369 49.5,365.5 Z"/></g>
        <g><path style="opacity:0.082" fill="#ffb906" d="M 365.5,363.5 C 365.833,363.5 366.167,363.5 366.5,363.5C 367.292,364.967 367.292,366.3 366.5,367.5C 364.3,366.675 363.966,365.342 365.5,363.5 Z"/></g>
        <g><path style="opacity:0.016" fill="#2cfed2" d="M 373.5,365.5 C 375.337,365.639 375.67,366.306 374.5,367.5C 373.702,367.043 373.369,366.376 373.5,365.5 Z"/></g>
        <g><path style="opacity:0.029" fill="#00ff00" d="M 380.5,365.5 C 381.675,365.281 382.675,365.614 383.5,366.5C 381.948,367.798 380.948,367.465 380.5,365.5 Z"/></g>
        <g><path style="opacity:0.098" fill="#c0e775" d="M 61.5,365.5 C 63.4832,365.157 64.8166,365.824 65.5,367.5C 65.1667,367.5 64.8333,367.5 64.5,367.5C 62.8008,367.66 61.1341,367.494 59.5,367C 60.4158,366.722 61.0825,366.222 61.5,365.5 Z"/></g>
        <g><path style="opacity:0.114" fill="#e6aa5e" d="M 367.5,359.5 C 367.5,360.167 367.5,360.833 367.5,361.5C 366.167,361.5 365.5,362.167 365.5,363.5C 362.88,365.149 360.213,366.815 357.5,368.5C 356.873,369.417 356.539,370.417 356.5,371.5C 355.833,371.5 355.167,371.5 354.5,371.5C 354.433,370.041 354.766,368.708 355.5,367.5C 358.48,365.417 361.147,362.917 363.5,360C 364.793,359.51 366.127,359.343 367.5,359.5 Z"/></g>
        <g><path style="opacity:0.02" fill="#d4f8ff" d="M 64.5,367.5 C 64.8333,367.5 65.1667,367.5 65.5,367.5C 65.8333,368.833 66.1667,370.167 66.5,371.5C 66.1667,371.5 65.8333,371.5 65.5,371.5C 65.5,370.833 65.1667,370.5 64.5,370.5C 64.5,369.5 64.5,368.5 64.5,367.5 Z"/></g>
        <g><path style="opacity:0.024" fill="#cfc02a" d="M 65.5,367.5 C 68.4006,368.792 70.7339,370.792 72.5,373.5C 72.5654,373.938 72.3988,374.272 72,374.5C 70.4941,372.826 68.6607,371.826 66.5,371.5C 66.1667,370.167 65.8333,368.833 65.5,367.5 Z"/></g>
        <g><path style="opacity:0.032" fill="#38e3ff" d="M 64.5,370.5 C 65.1667,370.5 65.5,370.833 65.5,371.5C 65.5,372.167 65.5,372.833 65.5,373.5C 63.4482,372.947 63.1148,371.947 64.5,370.5 Z"/></g>
        <g><path style="opacity:0.034" fill="#36f0ea" d="M 354.5,371.5 C 355.167,371.5 355.833,371.5 356.5,371.5C 360.135,371.656 360.468,372.822 357.5,375C 356.667,375.167 355.833,375.333 355,375.5C 353.624,375.316 352.791,374.649 352.5,373.5C 353.167,372.833 353.833,372.167 354.5,371.5 Z"/></g>
        <g><path style="opacity:0.008" fill="#00fffe" d="M 65.5,373.5 C 67.337,373.639 67.6704,374.306 66.5,375.5C 65.7025,375.043 65.3691,374.376 65.5,373.5 Z"/></g>
        <g><path style="opacity:0.008" fill="#43febd" d="M 363.5,373.5 C 365.337,373.639 365.67,374.306 364.5,375.5C 363.702,375.043 363.369,374.376 363.5,373.5 Z"/></g>
        <g><path style="opacity:0.024" fill="#fe0000" d="M 68.5,374.5 C 69.8333,375.167 69.8333,375.167 68.5,374.5 Z"/></g>
        <g><path style="opacity:0.024" fill="#00ff00" d="M 349.5,375.5 C 350.167,375.5 350.833,375.5 351.5,375.5C 351.5,376.167 351.5,376.833 351.5,377.5C 350.833,377.5 350.167,377.5 349.5,377.5C 349.5,376.833 349.5,376.167 349.5,375.5 Z"/></g>
        <g><path style="opacity:1" fill="#fd553f" d="M 355.5,367.5 C 354.766,368.708 354.433,370.041 354.5,371.5C 353.833,372.167 353.167,372.833 352.5,373.5C 350.302,373.409 349.969,374.075 351.5,375.5C 350.833,375.5 350.167,375.5 349.5,375.5C 348.71,376.609 348.21,377.942 348,379.5C 347.722,378.584 347.222,377.918 346.5,377.5C 256.494,378.164 166.827,377.497 77.5,375.5C 166.763,376.664 256.097,376.83 345.5,376C 347.976,374.691 349.976,372.858 351.5,370.5C 350.271,369.719 348.938,369.219 347.5,369C 350.113,368.131 352.78,367.631 355.5,367.5 Z"/></g>
        <g><path style="opacity:0.039" fill="#0fffef" d="M 71.5,377.5 C 71.5,378.167 71.5,378.833 71.5,379.5C 69.5,380.167 67.5,380.833 65.5,381.5C 65.5,380.833 65.5,380.167 65.5,379.5C 67.2821,378.28 69.2821,377.614 71.5,377.5 Z"/></g>
        <g><path style="opacity:0.008" fill="#fe00ff" d="M 71.5,377.5 C 72.1667,377.5 72.8333,377.5 73.5,377.5C 73.5,378.833 72.8333,379.5 71.5,379.5C 71.5,378.833 71.5,378.167 71.5,377.5 Z"/></g>
        <g><path style="opacity:0.008" fill="#fe00ff" d="M 349.5,377.5 C 350.167,377.5 350.833,377.5 351.5,377.5C 351.5,378.833 350.833,379.5 349.5,379.5C 349.5,378.833 349.5,378.167 349.5,377.5 Z"/></g>
        <g><path style="opacity:0.01" fill="#03fe26" d="M 359.5,377.5 C 362.534,377.609 363.534,378.943 362.5,381.5C 361.066,380.412 360.066,379.078 359.5,377.5 Z"/></g>
        <g><path style="opacity:1" fill="#f7f01f" d="M 75.5,375.5 C 76.1667,375.5 76.8333,375.5 77.5,375.5C 166.827,377.497 256.494,378.164 346.5,377.5C 345.665,378.943 344.332,379.943 342.5,380.5C 342.833,381.167 343.167,381.833 343.5,382.5C 341.604,383.466 339.604,383.799 337.5,383.5C 337.577,382.25 338.244,381.417 339.5,381C 338.833,380.667 338.167,380.333 337.5,380C 254.46,379.831 171.46,379.331 88.5,378.5C 85.0389,378.768 82.0389,379.768 79.5,381.5C 77.5082,381.328 75.8415,381.995 74.5,383.5C 73.0656,382.412 72.0656,381.078 71.5,379.5C 72.8333,379.5 73.5,378.833 73.5,377.5C 74.8333,377.5 75.5,376.833 75.5,375.5 Z"/></g>
        <g><path style="opacity:0.008" fill="#fe00ff" d="M 65.5,379.5 C 65.5,380.167 65.5,380.833 65.5,381.5C 64.8333,381.5 64.1667,381.5 63.5,381.5C 63.5,380.167 64.1667,379.5 65.5,379.5 Z"/></g>
        <g><path style="opacity:1" fill="#fede0f" d="M 337.5,383.5 C 334.981,386.447 331.981,388.947 328.5,391C 329.711,391.893 329.711,392.726 328.5,393.5C 327.808,392.975 327.308,392.308 327,391.5C 325.926,392.618 324.76,393.618 323.5,394.5C 325.891,395.809 325.891,396.809 323.5,397.5C 322.328,397.081 321.328,396.415 320.5,395.5C 319.269,396.651 319.269,397.817 320.5,399C 318.865,399.54 317.532,399.04 316.5,397.5C 314.8,398.61 313.466,399.943 312.5,401.5C 311.833,401.5 311.5,401.833 311.5,402.5C 309.804,400.871 308.804,401.204 308.5,403.5C 302.741,405.471 297.074,407.804 291.5,410.5C 290.329,413.855 288.662,414.189 286.5,411.5C 278.503,414.122 270.67,417.122 263,420.5C 262.439,419.978 261.772,419.645 261,419.5C 253.79,421.412 246.623,423.079 239.5,424.5C 223.5,424.5 207.5,424.5 191.5,424.5C 184.542,424.026 177.542,423.026 170.5,421.5C 168.273,422.585 166.273,422.085 164.5,420C 158.817,419.719 153.484,418.219 148.5,415.5C 146.956,415.79 145.623,416.456 144.5,417.5C 143.571,416.311 143.238,414.978 143.5,413.5C 141.088,413.669 138.921,413.003 137,411.5C 135.333,412.167 133.667,412.833 132,413.5C 131.5,413.167 131,412.833 130.5,412.5C 131.5,411.833 132.5,411.167 133.5,410.5C 126.857,407.592 120.357,404.592 114,401.5C 113.581,402.672 112.915,403.672 112,404.5C 111.506,402.866 111.34,401.199 111.5,399.5C 108.252,399.584 105.252,398.751 102.5,397C 102.833,396.667 103.167,396.333 103.5,396C 102.354,395.355 101.354,394.522 100.5,393.5C 99.7348,394.612 98.7348,395.279 97.5,395.5C 97.5394,394.417 97.8728,393.417 98.5,392.5C 93.0841,389.778 88.0841,386.445 83.5,382.5C 82.3112,381.571 80.9778,381.238 79.5,381.5C 82.0389,379.768 85.0389,378.768 88.5,378.5C 171.46,379.331 254.46,379.831 337.5,380C 338.167,380.333 338.833,380.667 339.5,381C 338.244,381.417 337.577,382.25 337.5,383.5 Z"/></g>
        <g><path style="opacity:0.024" fill="#fe0000" d="M 346.5,380.5 C 347.833,381.167 347.833,381.167 346.5,380.5 Z"/></g>
        <g><path style="opacity:0.059" fill="#00fffe" d="M 63.5,381.5 C 64.1667,381.5 64.8333,381.5 65.5,381.5C 64.8333,384.167 64.1667,384.167 63.5,381.5 Z"/></g>
        <g><path style="opacity:0.039" fill="#9ef758" d="M 351.5,377.5 C 352.675,377.281 353.675,377.614 354.5,378.5C 353.691,380.071 353.357,381.738 353.5,383.5C 352.167,383.5 350.833,383.5 349.5,383.5C 349.5,382.167 349.5,380.833 349.5,379.5C 350.833,379.5 351.5,378.833 351.5,377.5 Z"/></g>
        <g><path style="opacity:0.024" fill="#00ff00" d="M 79.5,385.5 C 80.675,385.281 81.675,385.614 82.5,386.5C 80.9483,387.798 79.9483,387.465 79.5,385.5 Z"/></g>
        <g><path style="opacity:0.016" fill="#00ff00" d="M 85.5,389.5 C 86.9778,389.238 88.3112,389.571 89.5,390.5C 88.8333,390.833 88.1667,391.167 87.5,391.5C 86.2867,391.253 85.62,390.586 85.5,389.5 Z"/></g>
        <g><path style="opacity:0.039" fill="#feff00" d="M 79.5,391.5 C 81.337,391.639 81.6704,392.306 80.5,393.5C 79.7025,393.043 79.3691,392.376 79.5,391.5 Z"/></g>
        <g><path style="opacity:0.039" fill="#eefe52" d="M 333.5,393.5 C 333.73,391.017 334.397,390.517 335.5,392C 335.164,393.03 334.497,393.53 333.5,393.5 Z"/></g>
        <g><path style="opacity:0.013" fill="#feff00" d="M 89.5,393.5 C 90.5,393.5 91.5,393.5 92.5,393.5C 92.5,394.833 92.5,396.167 92.5,397.5C 91.5,397.5 90.5,397.5 89.5,397.5C 89.5,396.167 89.5,394.833 89.5,393.5 Z"/></g>
        <g><path style="opacity:0.008" fill="#ffacfe" d="M 333.5,393.5 C 333.361,395.337 332.694,395.67 331.5,394.5C 331.957,393.702 332.624,393.369 333.5,393.5 Z"/></g>
        <g><path style="opacity:0.212" fill="#feff59" d="M 97.5,395.5 C 97.3605,397.337 96.6939,397.67 95.5,396.5C 95.9569,395.702 96.6236,395.369 97.5,395.5 Z"/></g>
        <g><path style="opacity:0.024" fill="#00ff00" d="M 99.5,397.5 C 101.337,397.639 101.67,398.306 100.5,399.5C 99.7025,399.043 99.3691,398.376 99.5,397.5 Z"/></g>
        <g><path style="opacity:0.039" fill="#18fe7b" d="M 332.5,397.5 C 333.675,397.281 334.675,397.614 335.5,398.5C 333.948,399.798 332.948,399.465 332.5,397.5 Z"/></g>
        <g><path style="opacity:0.008" fill="#d9fae9" d="M 311.5,402.5 C 310.791,403.404 309.791,403.737 308.5,403.5C 308.804,401.204 309.804,400.871 311.5,402.5 Z"/></g>
        <g><path style="opacity:0.034" fill="#8def44" d="M 312.5,401.5 C 314.035,402.844 315.368,404.511 316.5,406.5C 312.82,408.23 310.154,407.23 308.5,403.5C 309.791,403.737 310.791,403.404 311.5,402.5C 311.5,401.833 311.833,401.5 312.5,401.5 Z"/></g>
        <g><path style="opacity:0.098" fill="#f0ff25" d="M 317.5,403.5 C 319.337,403.639 319.67,404.306 318.5,405.5C 317.702,405.043 317.369,404.376 317.5,403.5 Z"/></g>
        <g><path style="opacity:0.008" fill="#00ff00" d="M 113.5,405.5 C 115.337,405.639 115.67,406.306 114.5,407.5C 113.702,407.043 113.369,406.376 113.5,405.5 Z"/></g>
        <g><path style="opacity:0.067" fill="#00b5a5" d="M 118.5,406.5 C 119.833,407.167 119.833,407.167 118.5,406.5 Z"/></g>
        <g><path style="opacity:0.008" fill="#00fffe" d="M 301.5,407.5 C 303.337,407.639 303.67,408.306 302.5,409.5C 301.702,409.043 301.369,408.376 301.5,407.5 Z"/></g>
        <g><path style="opacity:0.031" fill="#feff00" d="M 305.5,407.5 C 306.978,407.238 308.311,407.571 309.5,408.5C 308.833,408.833 308.167,409.167 307.5,409.5C 306.287,409.253 305.62,408.586 305.5,407.5 Z"/></g>
        <g><path style="opacity:0.067" fill="#59ff00" d="M 125.5,411.5 C 125.948,409.535 126.948,409.202 128.5,410.5C 127.675,411.386 126.675,411.719 125.5,411.5 Z"/></g>
        <g><path style="opacity:0.024" fill="#feff00" d="M 117.5,413.5 C 117.639,411.663 118.306,411.33 119.5,412.5C 119.043,413.298 118.376,413.631 117.5,413.5 Z"/></g>
        <g><path style="opacity:0.008" fill="#feff00" d="M 125.5,411.5 C 125.361,413.337 124.694,413.67 123.5,412.5C 123.957,411.702 124.624,411.369 125.5,411.5 Z"/></g>
        <g><path style="opacity:0.008" fill="#ffd6fe" d="M 301.5,413.5 C 300.022,413.762 298.689,413.429 297.5,412.5C 298.167,412.167 298.833,411.833 299.5,411.5C 300.713,411.747 301.38,412.414 301.5,413.5 Z"/></g>
        <g><path style="opacity:0.051" fill="#feff00" d="M 303.5,413.5 C 303.639,411.663 304.306,411.33 305.5,412.5C 305.043,413.298 304.376,413.631 303.5,413.5 Z"/></g>
        <g><path style="opacity:0.098" fill="#c9ff15" d="M 313.5,409.5 C 314.675,409.281 315.675,409.614 316.5,410.5C 314.95,412.959 312.95,413.626 310.5,412.5C 311.993,411.859 312.993,410.859 313.5,409.5 Z"/></g>
        <g><path style="opacity:0.051" fill="#e2ff00" d="M 317.5,411.5 C 319.337,411.639 319.67,412.306 318.5,413.5C 317.702,413.043 317.369,412.376 317.5,411.5 Z"/></g>
        <g><path style="opacity:0.039" fill="#eaff01" d="M 117.5,413.5 C 117.38,414.586 116.713,415.253 115.5,415.5C 114.833,415.167 114.167,414.833 113.5,414.5C 114.689,413.571 116.022,413.238 117.5,413.5 Z"/></g>
        <g><path style="opacity:0.008" fill="#00fffe" d="M 301.5,413.5 C 302.167,413.5 302.833,413.5 303.5,413.5C 302.833,416.167 302.167,416.167 301.5,413.5 Z"/></g>
        <g><path style="opacity:0.008" fill="#feff00" d="M 307.5,413.5 C 309.337,413.639 309.67,414.306 308.5,415.5C 307.702,415.043 307.369,414.376 307.5,413.5 Z"/></g>
        <g><path style="opacity:0.008" fill="#00fffe" d="M 149.5,419.5 C 150.978,419.238 152.311,419.571 153.5,420.5C 152.833,420.833 152.167,421.167 151.5,421.5C 150.287,421.253 149.62,420.586 149.5,419.5 Z"/></g>
        <g><path style="opacity:0.008" fill="#ff63ff" d="M 264.5,421.5 C 264.5,422.167 264.5,422.833 264.5,423.5C 259.36,422.25 259.36,421.584 264.5,421.5 Z"/></g>
        <g><path style="opacity:0.059" fill="#8bff85" d="M 264.5,423.5 C 264.5,422.833 264.5,422.167 264.5,421.5C 266.821,421.771 268.821,421.104 270.5,419.5C 271.429,420.689 271.762,422.022 271.5,423.5C 269.167,423.5 266.833,423.5 264.5,423.5 Z"/></g>
        <g><path style="opacity:0.034" fill="#c2ff38" d="M 159.5,424.5 C 162.5,423.167 165.5,423.167 168.5,424.5C 165.5,424.5 162.5,424.5 159.5,424.5 Z"/></g>
        <g><path style="opacity:0.021" fill="#93fecf" d="M 249.5,424.5 C 252.5,423.167 255.5,423.167 258.5,424.5C 255.5,424.5 252.5,424.5 249.5,424.5 Z"/></g>

    </symbol>

    <symbol id="es-flag" categories="custom" tags="flag" viewBox="0 0 512 512">
        <g>
            <path style="fill:#FFDA44;" d="M0,256c0,31.314,5.633,61.31,15.923,89.043L256,367.304l240.077-22.261C506.367,317.31,512,287.314,512,256s-5.633-61.31-15.923-89.043L256,144.696L15.923,166.957C5.633,194.69,0,224.686,0,256z"/>
            <path style="fill:#D80027;" d="M496.077,166.957C459.906,69.473,366.071,0,256,0S52.094,69.473,15.923,166.957H496.077z"/>
            <path style="fill:#D80027;" d="M15.923,345.043C52.094,442.527,145.929,512,256,512s203.906-69.473,240.077-166.957H15.923z"/>
        </g>
    </symbol>





</svg>